<svg xmlns="http://www.w3.org/2000/svg" viewBox="0 0 1400 560">
  <defs>
    <linearGradient id="bg" x1="0" y1="0" x2="1" y2="1">
      <stop offset="0" stop-color="#1d4ed8"/>
      <stop offset="1" stop-color="#0ea5e9"/>
    </linearGradient>
    <linearGradient id="shield" x1="0.5" y1="0" x2="0.5" y2="1">
      <stop offset="0" stop-color="#ffffff"/>
      <stop offset="1" stop-color="#e0f2fe"/>
    </linearGradient>
    <radialGradient id="glow" cx="0.2" cy="0.35" r="0.7">
      <stop offset="0" stop-color="#ffffff" stop-opacity="0.18"/>
      <stop offset="1" stop-color="#ffffff" stop-opacity="0"/>
    </radialGradient>
    <radialGradient id="glow2" cx="0.85" cy="0.8" r="0.55">
      <stop offset="0" stop-color="#7dd3fc" stop-opacity="0.25"/>
      <stop offset="1" stop-color="#7dd3fc" stop-opacity="0"/>
    </radialGradient>
  </defs>

  <rect x="0" y="0" width="1400" height="560" fill="url(#bg)"/>
  <rect x="0" y="0" width="1400" height="560" fill="url(#glow)"/>
  <rect x="0" y="0" width="1400" height="560" fill="url(#glow2)"/>

  <!-- Shield icon -->
  <g transform="translate(140,140) scale(0.32)">
    <path
      fill="url(#shield)"
      d="M512 168
         L780 264
         L780 528
         C780 690 666 808 512 856
         C358 808 244 690 244 528
         L244 264
         Z"/>
    <path
      fill="none"
      stroke="#1d4ed8"
      stroke-width="64"
      stroke-linecap="round"
      stroke-linejoin="round"
      d="M380 528 L478 626 L660 444"/>
  </g>

  <!-- Wordmark -->
  <text x="450" y="260" fill="#ffffff" font-family="-apple-system, BlinkMacSystemFont, 'Segoe UI', Roboto, sans-serif" font-size="140" font-weight="700" letter-spacing="-3">Kaikey</text>

  <!-- Tagline -->
  <text x="455" y="330" fill="#e0f2fe" font-family="-apple-system, BlinkMacSystemFont, 'Segoe UI', Roboto, sans-serif" font-size="40" font-weight="500">KAIST SSO 2FA, handled in your browser.</text>

  <!-- Bullet row -->
  <text x="455" y="400" fill="#bae6fd" font-family="-apple-system, BlinkMacSystemFont, 'Segoe UI', Roboto, sans-serif" font-size="26" font-weight="400">Auto-fill ID  ·  Match the code  ·  Approve the push  ·  No phone needed</text>
</svg>
